<?xml version="1.0" standalone="no"?>
<!DOCTYPE svg PUBLIC "-//W3C//DTD SVG 20010904//EN"
 "http://www.w3.org/TR/2001/REC-SVG-20010904/DTD/svg10.dtd">
<svg version="1.0" xmlns="http://www.w3.org/2000/svg"
 width="50.000000pt" height="50.000000pt" viewBox="0 0 50.000000 50.000000"
 preserveAspectRatio="xMidYMid meet">

<g transform="translate(0.000000,50.000000) scale(0.100000,-0.100000)"
fill="#000000" stroke="none">
<path d="M160 415 l0 -75 -75 0 c-60 0 -75 -3 -75 -15 0 -12 15 -15 75 -15
l75 0 0 -55 0 -55 -75 0 c-60 0 -75 -3 -75 -15 0 -12 15 -15 75 -15 l75 0 0
-75 c0 -60 3 -75 15 -75 12 0 15 15 15 75 l0 75 55 0 55 0 0 -75 c0 -60 3 -75
15 -75 12 0 15 15 15 75 l0 75 75 0 c60 0 75 3 75 15 0 12 -15 15 -75 15 l-75
0 0 55 0 55 75 0 c60 0 75 3 75 15 0 12 -15 15 -75 15 l-75 0 0 75 c0 60 -3
75 -15 75 -12 0 -15 -15 -15 -75 l0 -75 -55 0 -55 0 0 75 c0 60 -3 75 -15 75
-12 0 -15 -15 -15 -75z m140 -160 l0 -55 -55 0 -55 0 0 55 0 55 55 0 55 0 0
-55z"/>
<path d="M200 286 c0 -8 4 -18 10 -21 6 -4 5 -13 -2 -25 -15 -24 -3 -38 20
-24 12 8 22 8 34 0 22 -13 35 0 22 22 -8 12 -8 22 0 34 14 23 0 35 -24 20 -12
-7 -21 -8 -25 -2 -9 15 -35 12 -35 -4z"/>
<path d="M50 436 c0 -8 4 -18 10 -21 6 -4 5 -13 -2 -25 -15 -24 -3 -38 20 -24
12 8 22 8 34 0 22 -13 35 0 22 22 -8 12 -8 22 0 34 14 23 0 35 -24 20 -12 -7
-21 -8 -25 -2 -9 15 -35 12 -35 -4z"/>
<path d="M362 438 c-19 -19 -14 -56 8 -68 43 -23 83 17 60 60 -12 22 -49 27
-68 8z m48 -33 c0 -8 -7 -15 -15 -15 -8 0 -15 7 -15 15 0 8 7 15 15 15 8 0 15
-7 15 -15z"/>
<path d="M60 285 c-16 -20 -5 -62 19 -70 42 -13 72 25 51 65 -13 24 -52 27
-70 5z m50 -30 c0 -8 -7 -15 -15 -15 -8 0 -15 7 -15 15 0 8 7 15 15 15 8 0 15
-7 15 -15z"/>
<path d="M60 135 c-16 -20 -5 -62 19 -70 42 -13 72 25 51 65 -13 24 -52 27
-70 5z m50 -30 c0 -8 -7 -15 -15 -15 -8 0 -15 7 -15 15 0 8 7 15 15 15 8 0 15
-7 15 -15z"/>
<path d="M350 136 c0 -8 4 -18 10 -21 6 -4 5 -13 -2 -25 -15 -24 -3 -38 20
-24 12 8 22 8 34 0 22 -13 35 0 22 22 -8 12 -8 22 0 34 14 23 0 35 -24 20 -12
-7 -21 -8 -25 -2 -9 15 -35 12 -35 -4z"/>
</g>
</svg>
